<?xml version="1.0" encoding="utf-8"?>
<!-- Generator: Adobe Illustrator 26.0.3, SVG Export Plug-In . SVG Version: 6.00 Build 0)  -->
<svg version="1.1" id="Layer_1" xmlns="http://www.w3.org/2000/svg" xmlns:xlink="http://www.w3.org/1999/xlink" x="0px" y="0px"
	 viewBox="0 0 135.8 172.3" style="enable-background:new 0 0 135.8 172.3;" xml:space="preserve">
<style type="text/css">
	.st0{stroke:#000000;stroke-miterlimit:10;}
	.st1{fill:none;stroke:#F36F35;stroke-width:6;stroke-miterlimit:10;}
	.st2{fill:none;stroke:#FFFFFF;stroke-width:6;stroke-miterlimit:10;}
	.st3{fill:#F36F35;}
	.st4{fill:none;stroke:#F36F35;stroke-width:3;stroke-miterlimit:10;}
	.st5{fill:#FFFFFF;}
	.st6{fill:none;stroke:#FFFFFF;stroke-width:5;stroke-miterlimit:10;}
	.st7{fill:none;stroke:#F36F35;stroke-width:5;stroke-miterlimit:10;}
	.st8{fill:none;stroke:#F36F35;stroke-width:7;stroke-miterlimit:10;}
	.st9{fill:none;stroke:#F36F35;stroke-width:7;stroke-miterlimit:10;stroke-dasharray:12.3018,12.3018;}
	.st10{font-family:'Futura-CondensedExtraBold';}
	.st11{font-size:28px;}
	.st12{fill:none;stroke:#FFFFFF;stroke-width:4;stroke-miterlimit:10;}
	.st13{fill:none;stroke:#FFFFFF;stroke-width:4;stroke-miterlimit:10;stroke-dasharray:8.7802,8.7802;}
	.st14{fill:none;stroke:#000000;stroke-width:3;stroke-linecap:round;stroke-miterlimit:10;}
</style>
<circle class="st3" cx="68.4" cy="68.2" r="65"/>
<text transform="matrix(1 0 0 1 21.413 74.7689)" class="st5 st10 st11">Explore</text>
<g>
	<g>
		<path class="st12" d="M55.9,126.9c-1.5-0.3-2.9-0.7-4.4-1.1"/>
		<path class="st13" d="M43.3,122.8C22.5,113.4,8,92.5,8,68.1c0-33.1,26.9-60,60-60s60,26.9,60,60c0,25.5-15.9,47.2-38.3,55.9"/>
		<path class="st12" d="M85.5,125.5c-1.4,0.4-2.9,0.8-4.4,1.2"/>
	</g>
</g>
<g>
	<g>
		<line class="st14" x1="67.9" y1="98.9" x2="68" y2="146.6"/>
		<g>
			<polygon points="53,142.3 68,168.2 82.9,142.2 			"/>
		</g>
	</g>
</g>
</svg>
