<?xml version="1.0" encoding="utf-8"?>
<!-- Generator: Adobe Illustrator 26.0.3, SVG Export Plug-In . SVG Version: 6.00 Build 0)  -->
<svg version="1.1" id="Layer_1" xmlns="http://www.w3.org/2000/svg" xmlns:xlink="http://www.w3.org/1999/xlink" x="0px" y="0px"
	 viewBox="0 0 153.7 129.5" style="enable-background:new 0 0 153.7 129.5;" xml:space="preserve">
<style type="text/css">
	.st0{stroke:#000000;stroke-miterlimit:10;}
	.st1{fill:none;stroke:#F36F35;stroke-width:6;stroke-miterlimit:10;}
	.st2{fill:none;stroke:#FFFFFF;stroke-width:6;stroke-miterlimit:10;}
	.st3{fill:#F36F35;}
	.st4{fill:none;stroke:#F36F35;stroke-width:3;stroke-miterlimit:10;}
	.st5{fill:#FFFFFF;}
	.st6{fill:none;stroke:#FFFFFF;stroke-width:5;stroke-miterlimit:10;}
	.st7{fill:none;stroke:#F36F35;stroke-width:5;stroke-miterlimit:10;}
	.st8{fill:none;stroke:#F36F35;stroke-width:7;stroke-miterlimit:10;}
	.st9{fill:none;stroke:#F36F35;stroke-width:7;stroke-miterlimit:10;stroke-dasharray:12.3018,12.3018;}
	.st10{fill:none;stroke:#FFFFFF;stroke-width:4;stroke-miterlimit:10;}
	.st11{fill:none;stroke:#FFFFFF;stroke-width:4;stroke-miterlimit:10;stroke-dasharray:8.7802,8.7802;}
	.st12{fill:none;stroke:#000000;stroke-width:3;stroke-linecap:round;stroke-miterlimit:10;}
</style>
<g>
	<path class="st3" d="M-116.2,67.9c0.8,26.1,35.2,40.6,56.6,46.9c37.6,10.9,77.5,10.5,116,4.9c26.8-4.2,80.9-15.4,89.4-44.6
		c3.9-15.5-7.8-29.3-19.6-38.1C86.8,8.7,24.8,0.1-22.3,9.1c-25.4,4.8-50.9,13-72.4,27.8C-104.9,44.4-115.9,54.4-116.2,67.9
		L-116.2,67.9z M-116.2,67.9c0.7-24.3,36.2-41.5,56-49.4C-23.6,4.1,16.7-1,55.7,5.2c26,4,52.3,11.7,73.9,27.3
		c13.6,9.8,26.7,26.4,21.9,44.2c-12.1,41.5-97.2,49.4-133.8,49.7c-38.4,0.1-80.3-6-113-27.1C-105.8,92.1-116.2,81.4-116.2,67.9
		L-116.2,67.9z"/>
</g>
<g>
	<path class="st5" d="M17.2,17.1c55.2,0,100,21.2,100,47.3s-44.8,47.3-100,47.3"/>
	<path d="M17.2,17.1c30.5-2.5,89.5,6.2,101.7,39.1c4.8,14-3.6,27.3-14.6,35.3c-25,17.6-57.4,21.8-87,20.3
		c28.5-1.6,84.6-11.4,96-40.9c3.9-11.5-3.6-22.1-12.5-28.9C77,24.4,46.4,19.3,17.2,17.1L17.2,17.1z"/>
</g>
<g>
	<path class="st5" d="M-82.5,64.3c0-10.2,6.9-18.8,14.7-24.8c37.6-27,101.4-28.7,144.5-14.7c56.3,18.9,56.4,60.1,0,79
		c-43.1,14-106.9,12.3-144.5-14.7C-75.6,83.2-82.5,74.6-82.5,64.3L-82.5,64.3z M-82.5,64.3c0.7,20.6,24.3,32.2,41.3,38.1
		c37.7,11.9,79.7,11.4,117.1-1C92.2,95.5,115.4,84,116,64.3c-0.6-19.7-23.8-31.2-40.2-37.1c-37.4-12.5-79.4-12.9-117.1-1
		C-58.3,32.2-81.8,43.7-82.5,64.3L-82.5,64.3z"/>
</g>
<g>
	<path class="st5" d="M-60.1,63.9C-60.1,44.3-27,35,14.5,35s75.5,9.3,75.5,28.9s-33.6,27.2-75,27.2S-60.1,83.5-60.1,63.9z"/>
	<path d="M-60.1,63.9C-60.5,31.2,35.3,26.9,59,32.5c15.9,2.7,38,11,38.9,30.5c0.8,20.3-21.6,28.8-38.2,31.3
		c-22.5,3.3-44.2,1.5-66.3-1.4C-22.6,90.2-60,84.8-60.1,63.9L-60.1,63.9z M-60.1,63.9C-59,90.7-3.8,88.8,15.2,87.1
		c13.7-1.1,66.9-6.2,66.7-23.5c-1.6-17.4-52.7-23.6-67.4-24.6c-21-1.3-43.8-1.9-63,8.1C-54.7,50.4-60.2,56.4-60.1,63.9L-60.1,63.9z"
		/>
</g>
<g>
	<path class="st3" d="M-0.2,32.4c12.1-16,32-9.5,45.3,1.4c8.4,6.7,13,17.4,12.7,28C57.6,72.6,52.4,83,44.6,90.2
		c-7.5,7.6-18.8,11.8-29.5,10.1C8.2,99.4,1.8,96.9-4,93.7c0,0,0.2-0.7,0.2-0.7c12.1,2.6,25.6,4.5,36.3-2.4
		c9.8-6.6,18.7-16.7,19.5-29c1-13.6-6.1-23.5-17.3-30.4c-5.3-3.4-11.4-6.1-17.7-6.1c-6.4-0.1-12.6,3.1-16.8,7.8
		C0.3,32.9-0.2,32.4-0.2,32.4L-0.2,32.4z"/>
</g>
</svg>
