<?xml version="1.0" encoding="utf-8"?>
<!-- Generator: Adobe Illustrator 26.0.3, SVG Export Plug-In . SVG Version: 6.00 Build 0)  -->
<svg version="1.1" id="Layer_1" xmlns="http://www.w3.org/2000/svg" xmlns:xlink="http://www.w3.org/1999/xlink" x="0px" y="0px"
	 viewBox="0 0 145.6 212.2" style="enable-background:new 0 0 145.6 212.2;" xml:space="preserve">
<style type="text/css">
	.st0{stroke:#000000;stroke-miterlimit:10;}
	.st1{fill:none;stroke:#F36F35;stroke-width:6;stroke-miterlimit:10;}
	.st2{fill:none;stroke:#FFFFFF;stroke-width:6;stroke-miterlimit:10;}
	.st3{fill:#F36F35;}
	.st4{fill:none;stroke:#F36F35;stroke-width:3;stroke-miterlimit:10;}
	.st5{fill:#FFFFFF;}
	.st6{fill:none;stroke:#FFFFFF;stroke-width:5;stroke-miterlimit:10;}
	.st7{fill:none;stroke:#F36F35;stroke-width:5;stroke-miterlimit:10;}
	.st8{fill:none;stroke:#F36F35;stroke-width:7;stroke-miterlimit:10;}
	.st9{fill:none;stroke:#F36F35;stroke-width:7;stroke-miterlimit:10;stroke-dasharray:12.3018,12.3018;}
	.st10{fill:none;stroke:#FFFFFF;stroke-width:4;stroke-miterlimit:10;}
	.st11{fill:none;stroke:#FFFFFF;stroke-width:4;stroke-miterlimit:10;stroke-dasharray:8.7802,8.7802;}
	.st12{fill:none;stroke:#000000;stroke-width:3;stroke-linecap:round;stroke-miterlimit:10;}
</style>
<circle class="st6" cx="5.2" cy="85.4" r="75"/>
<circle class="st7" cx="5.8" cy="85.1" r="60"/>
<circle class="st6" cx="5.2" cy="85.1" r="45"/>
<g>
	<g>
		<path class="st3" d="M79.5,139.5c5.3,3.8,10.5,7.6,15.8,11.4c8.4,6.1,16.8,12.1,25.2,18.2c1.9,1.4,3.8,2.8,5.8,4.2
			c1.1,0.8,2.8,0.2,3.4-0.9c0.7-1.3,0.2-2.6-0.9-3.4c-5.3-3.8-10.5-7.6-15.8-11.4c-8.4-6.1-16.8-12.1-25.2-18.2
			c-1.9-1.4-3.8-2.8-5.8-4.2c-1.1-0.8-2.8-0.2-3.4,0.9C77.9,137.4,78.4,138.8,79.5,139.5L79.5,139.5z"/>
	</g>
</g>
<g>
	<g>
		<path d="M90.9,88.9c5.3,0,10.7,0,16,0c8.5,0,16.9,0,25.4,0c2,0,3.9,0,5.9,0c3.2,0,3.2-5,0-5c-5.3,0-10.7,0-16,0
			c-8.5,0-16.9,0-25.4,0c-2,0-3.9,0-5.9,0C87.7,83.9,87.7,88.9,90.9,88.9L90.9,88.9z"/>
	</g>
</g>
<g>
	<g>
		<path d="M33.3,168.5c4.2,10.8,8.4,21.6,12.5,32.4c0.6,1.6,1.2,3.1,1.8,4.7c0.5,1.3,1.7,2.1,3.1,1.7c1.2-0.3,2.2-1.8,1.7-3.1
			c-4.2-10.8-8.4-21.6-12.5-32.4c-0.6-1.6-1.2-3.1-1.8-4.7c-0.5-1.3-1.7-2.1-3.1-1.7C33.8,165.7,32.8,167.2,33.3,168.5L33.3,168.5z"
			/>
	</g>
</g>
</svg>
