<?xml version="1.0" encoding="utf-8"?>
<!-- Generator: Adobe Illustrator 25.1.0, SVG Export Plug-In . SVG Version: 6.00 Build 0)  -->
<svg version="1.1" xmlns="http://www.w3.org/2000/svg" xmlns:xlink="http://www.w3.org/1999/xlink" x="0px" y="0px"
	 viewBox="0 0 437.5 389" style="enable-background:new 0 0 437.5 389;" xml:space="preserve">
<style type="text/css">
	.st0{display:none;}
	.st1{display:inline;fill:#F5856B;}
	.st2{display:inline;fill:#219393;}
	.st3{stroke:#000000;stroke-miterlimit:10;}
	.st4{display:none;stroke:#000000;stroke-miterlimit:10;}
</style>
<g id="Layer_2" class="st0">
	<polygon class="st1" points="436.7,424.2 193.2,426.4 193.2,-35.6 436.7,-37.8 	"/>
	<polyline class="st2" points="-49.6,-33.5 193.9,-35.7 193.9,426.3 -49.6,428.5 	"/>
</g>
<g id="Layer_1">
	<rect x="181.6" y="0.9" class="st3" width="42.7" height="387.4"/>
	<polygon class="st3" points="23.3,0.9 24,1.8 123.7,129.2 123.7,0.9 	"/>
	<polygon class="st3" points="11.1,388.4 124.2,219.2 124.2,388.4 	"/>
	<path class="st3" d="M340.3,159.8h-67.8V59.4h67.8c27.6,0,50,22.4,50,50v0.3C390.3,137.4,367.9,159.8,340.3,159.8z"/>
	<path class="st3" d="M346.5,344.5h-77.9V235.6h77.9c27.6,0,50,22.4,50,50v8.9C396.5,322.1,374.1,344.5,346.5,344.5z"/>
	<polygon class="st4" points="96.3,174.7 -1.5,56 -5.4,332.5 	"/>
	<path class="st4" d="M378.2,190.7l5.7-5.1c18.3-16.2,30.8-37.9,35.6-61.9l1.7-8.4c0.1-0.5,1.8-9.3,1.8-8.8l2.1,148.4l-5.8-14.1
		c-8.2-20-22.6-36.9-41-48.2l-0.3-0.2C377.6,192,377.7,191.2,378.2,190.7z"/>
</g>
</svg>
