<?xml version="1.0" encoding="utf-8"?>
<!-- Generator: Adobe Illustrator 25.1.0, SVG Export Plug-In . SVG Version: 6.00 Build 0)  -->
<svg version="1.1" id="Layer_1" xmlns="http://www.w3.org/2000/svg" xmlns:xlink="http://www.w3.org/1999/xlink" x="0px" y="0px"
	 viewBox="0 0 464.7 388.5" style="enable-background:new 0 0 464.7 388.5;" xml:space="preserve">
<style type="text/css">
	.st0{display:none;}
	.st1{display:inline;fill:#F5856B;}
	.st2{display:inline;fill:#219393;}
	.st3{stroke:#000000;stroke-miterlimit:10;}
	.st4{display:none;stroke:#000000;stroke-miterlimit:10;}
</style>
<g id="Layer_2_1_">
	<polygon class="st1" points="464.5,423.2 221.1,425.4 221.1,-36.6 464.5,-38.8 	"/>
	<polyline class="st2" points="-21.7,-34.5 221.7,-36.7 221.7,425.3 -21.7,427.5 	"/>
</g>
<g id="Layer_1_1_" style="display:inline;">
	<rect x="199.7" y="-0.1" class="st3" width="42.7" height="387.4"/>
	<polygon class="st3" points="51.1,-0.1 51.8,0.8 151.6,128.2 151.6,-0.1 	"/>
	<polygon class="st3" points="39.5,386.3 152.6,217 152.6,386.3 	"/>
	<path class="st3" d="M358.4,160.7h-67.8V60.4h67.8c27.6,0,50,22.4,50,50v0.3C408.4,138.3,386,160.7,358.4,160.7z"/>
	<path class="st3" d="M368.4,344.5h-77.9V235.6h77.9c27.6,0,50,22.4,50,50v8.9C418.4,322.1,396.1,344.5,368.4,344.5z"/>
	<polygon class="st4" points="124.1,173.7 26.3,55 22.4,331.5 	"/>
	<path class="st4" d="M406.1,189.7l5.8-5.1c18.3-16.2,30.9-37.9,35.6-61.9l1.7-8.4c0.1-0.5,1.8-9.3,1.8-8.8l2.1,148.5l-5.8-14.1
		c-8.2-20-22.6-36.9-41-48.2l-0.2-0.1C405.5,191,405.5,190.2,406.1,189.7z"/>
</g>
</svg>
